<svg width="18" height="18" viewBox="0 0 18 18" fill="none" xmlns="http://www.w3.org/2000/svg">
<path d="M9 14C9.28333 14 9.521 13.904 9.713 13.712C9.90433 13.5207 10 13.2833 10 13C10 12.7167 9.90433 12.479 9.713 12.287C9.521 12.0957 9.28333 12 9 12C8.71667 12 8.47933 12.0957 8.288 12.287C8.096 12.479 8 12.7167 8 13C8 13.2833 8.096 13.5207 8.288 13.712C8.47933 13.904 8.71667 14 9 14ZM8 10H10V4H8V10ZM5.25 18L0 12.75V5.25L5.25 0H12.75L18 5.25V12.75L12.75 18H5.25ZM6.1 16H11.9L16 11.9V6.1L11.9 2H6.1L2 6.1V11.9L6.1 16Z" fill="#1C1B1F"/>
</svg>
