<svg width="24" height="24" viewBox="0 0 24 24" fill="none" xmlns="http://www.w3.org/2000/svg">
<mask id="mask0_146_19" style="mask-type:alpha" maskUnits="userSpaceOnUse" x="0" y="0" width="24" height="24">
<rect width="24" height="24" fill="#D9D9D9"/>
</mask>
<g mask="url(#mask0_146_19)">
<path d="M15.275 16.6L16.6 15.275L12.95 11.625V7.075H11.075V12.375L15.275 16.6ZM12 21.75C10.65 21.75 9.38333 21.4917 8.2 20.975C7.01667 20.4583 5.98767 19.7623 5.113 18.887C4.23767 18.0123 3.54167 16.9833 3.025 15.8C2.50833 14.6167 2.25 13.35 2.25 12C2.25 10.65 2.50833 9.38333 3.025 8.2C3.54167 7.01667 4.23767 5.98333 5.113 5.1C5.98767 4.21667 7.01667 3.52067 8.2 3.012C9.38333 2.504 10.65 2.25 12 2.25C13.35 2.25 14.6167 2.50833 15.8 3.025C16.9833 3.54167 18.0167 4.23733 18.9 5.112C19.7833 5.98733 20.4793 7.01667 20.988 8.2C21.496 9.38333 21.75 10.65 21.75 12C21.75 13.35 21.4917 14.6167 20.975 15.8C20.4583 16.9833 19.7627 18.0123 18.888 18.887C18.0127 19.7623 16.9833 20.4583 15.8 20.975C14.6167 21.4917 13.35 21.75 12 21.75ZM12 19.875C14.1833 19.875 16.0417 19.104 17.575 17.562C19.1083 16.0207 19.875 14.1667 19.875 12C19.875 9.81667 19.1083 7.95833 17.575 6.425C16.0417 4.89167 14.1833 4.125 12 4.125C9.83333 4.125 7.97933 4.89167 6.438 6.425C4.896 7.95833 4.125 9.81667 4.125 12C4.125 14.1667 4.896 16.0207 6.438 17.562C7.97933 19.104 9.83333 19.875 12 19.875Z" fill="white"/>
</g>
</svg>
