<svg width="24" height="24" viewBox="0 0 24 24" fill="none" xmlns="http://www.w3.org/2000/svg">
<mask id="mask0_132_90" style="mask-type:alpha" maskUnits="userSpaceOnUse" x="0" y="0" width="24" height="24">
<rect width="24" height="24" fill="#D9D9D9"/>
</mask>
<g mask="url(#mask0_132_90)">
<path d="M9.45 15.875L12 13.325L14.55 15.875L15.875 14.55L13.325 12L15.875 9.45001L14.55 8.12501L12 10.675L9.45 8.12501L8.125 9.45001L10.675 12L8.125 14.55L9.45 15.875ZM4.125 19.775C3.60833 19.775 3.16667 19.5917 2.8 19.225C2.43333 18.8583 2.25 18.4167 2.25 17.9V6.10001C2.25 5.58334 2.43333 5.14167 2.8 4.77501C3.16667 4.40834 3.60833 4.22501 4.125 4.22501H19.875C20.3917 4.22501 20.8333 4.40834 21.2 4.77501C21.5667 5.14167 21.75 5.58334 21.75 6.10001V17.9C21.75 18.4167 21.5667 18.8583 21.2 19.225C20.8333 19.5917 20.3917 19.775 19.875 19.775H4.125Z" fill="white"/>
</g>
</svg>
