<svg width="18" height="18" viewBox="0 0 18 18" fill="none" xmlns="http://www.w3.org/2000/svg">
<g clip-path="url(#clip0_24_262)">
<path fill-rule="evenodd" clip-rule="evenodd" d="M9 18C13.9574 18 18 13.9574 18 9C18 4.04255 13.9571 0 9 0C4.04291 0 0 4.04255 0 9C0 13.9574 4.04363 18 9 18Z" fill="#FFF7F7"/>
<path fill-rule="evenodd" clip-rule="evenodd" d="M8.99995 3.94629C6.90994 3.94629 5.20972 5.65871 5.20972 7.76344C5.20972 10.7551 8.64318 13.8443 8.78998 13.9735C8.85028 14.0266 8.92529 14.0539 8.99959 14.0539C9.07388 14.0539 9.14998 14.027 9.21027 13.9746C9.35636 13.8443 12.7905 10.7551 12.7905 7.76344C12.7905 5.65871 11.0896 3.94629 8.99959 3.94629H8.99995ZM8.99995 9.84196C7.83883 9.84196 6.8945 8.89764 6.8945 7.73652C6.8945 6.5754 7.83883 5.63107 8.99995 5.63107C10.1611 5.63107 11.1065 6.5754 11.1065 7.73652C11.1065 8.89764 10.1611 9.84196 8.99995 9.84196Z" fill="#1E1E1E"/>
</g>
<defs>
<clipPath id="clip0_24_262">
<rect width="18" height="18" fill="white"/>
</clipPath>
</defs>
</svg>
