<svg width="18" height="18" viewBox="0 0 18 18" fill="none" xmlns="http://www.w3.org/2000/svg">
<g clip-path="url(#clip0_24_273)">
<path fill-rule="evenodd" clip-rule="evenodd" d="M9 18C13.9574 18 18 13.9574 18 9C18 4.04255 13.9571 0 9 0C4.04291 0 0 4.04255 0 9C0 13.9574 4.04255 18 9 18Z" fill="#FFF7F7"/>
<path fill-rule="evenodd" clip-rule="evenodd" d="M13.04 5.7915H4.95919C4.82639 5.7915 4.7022 5.8195 4.59058 5.8658L8.98093 9.63844L9.96473 8.82584V8.82512H9.96545L13.4097 5.8658C13.2977 5.8195 13.1728 5.7915 13.04 5.7915Z" fill="#1E1E1E"/>
<path fill-rule="evenodd" clip-rule="evenodd" d="M13.8157 6.21436L10.5742 8.9996L13.8157 11.7848C13.8688 11.6887 13.9022 11.5813 13.9022 11.4676V6.53164C13.9022 6.41822 13.8699 6.31162 13.8157 6.21436Z" fill="#1E1E1E"/>
<path fill-rule="evenodd" clip-rule="evenodd" d="M4.18391 6.21436C4.12972 6.31126 4.09741 6.41786 4.09741 6.53164V11.4679C4.09741 11.5813 4.12972 11.6879 4.18391 11.7852L7.42535 8.99996L4.18391 6.21471V6.21436Z" fill="#1E1E1E"/>
<path fill-rule="evenodd" clip-rule="evenodd" d="M10.1679 9.34912L9.18335 10.1617C9.12736 10.2098 9.05414 10.2342 8.98056 10.2342C8.90698 10.2342 8.83376 10.2098 8.77777 10.1617L7.83165 9.34912L4.59021 12.1336C4.70219 12.1799 4.82602 12.2079 4.95882 12.2079H13.0396C13.1724 12.2079 13.2966 12.1799 13.4093 12.1336L10.1679 9.34912Z" fill="#1E1E1E"/>
</g>
<defs>
<clipPath id="clip0_24_273">
<rect width="18" height="18" fill="white"/>
</clipPath>
</defs>
</svg>
