<svg width="16" height="16" viewBox="0 0 16 16" fill="none" xmlns="http://www.w3.org/2000/svg">
<mask id="mask0_130_56" style="mask-type:alpha" maskUnits="userSpaceOnUse" x="0" y="0" width="16" height="16">
<rect width="16" height="16" fill="#D9D9D9"/>
</mask>
<g mask="url(#mask0_130_56)">
<path d="M7.34954 11.2833H8.66621V8.66667H11.2829V7.35H8.66621V4.71667H7.34954V7.35H4.71621V8.66667H7.34954V11.2833ZM7.99954 14.6333C7.07732 14.6333 6.21354 14.4584 5.40821 14.1087C4.60243 13.7584 3.90243 13.2862 3.30821 12.692C2.71354 12.0973 2.24132 11.3971 1.89154 10.5913C1.54132 9.786 1.36621 8.92222 1.36621 8C1.36621 7.07778 1.54132 6.214 1.89154 5.40867C2.24132 4.60289 2.71354 3.90289 3.30821 3.30867C3.90243 2.714 4.60243 2.24156 5.40821 1.89134C6.21354 1.54156 7.07732 1.36667 7.99954 1.36667C8.92177 1.36667 9.78554 1.54156 10.5909 1.89134C11.3967 2.24156 12.0969 2.714 12.6915 3.30867C13.2858 3.90289 13.758 4.60289 14.1082 5.40867C14.458 6.214 14.6329 7.07778 14.6329 8C14.6329 8.92222 14.458 9.786 14.1082 10.5913C13.758 11.3971 13.2858 12.0973 12.6915 12.692C12.0969 13.2862 11.3967 13.7584 10.5909 14.1087C9.78554 14.4584 8.92177 14.6333 7.99954 14.6333Z" fill="white"/>
</g>
</svg>
