<svg width="16" height="16" viewBox="0 0 16 16" fill="none" xmlns="http://www.w3.org/2000/svg">
<mask id="mask0_130_50" style="mask-type:alpha" maskUnits="userSpaceOnUse" x="0" y="0" width="16" height="16">
<rect width="16" height="16" fill="#D9D9D9"/>
</mask>
<g mask="url(#mask0_130_50)">
<path d="M7.99994 3.33334C7.73327 3.33334 7.50549 3.24156 7.3166 3.058C7.12771 2.87489 7.03327 2.64445 7.03327 2.36667C7.03327 2.14445 7.11105 1.90556 7.2666 1.65C7.42216 1.39445 7.6666 1.1 7.99994 0.76667C8.33327 1.1 8.57771 1.39445 8.73327 1.65C8.88882 1.90556 8.9666 2.14445 8.9666 2.36667C8.9666 2.63334 8.87216 2.86111 8.68327 3.05C8.49438 3.23889 8.2666 3.33334 7.99994 3.33334ZM4.73327 3.33334C4.4666 3.33334 4.23882 3.24156 4.04993 3.058C3.86105 2.87489 3.7666 2.64445 3.7666 2.36667C3.7666 2.14445 3.84438 1.90556 3.99993 1.65C4.15549 1.39445 4.39993 1.1 4.73327 0.76667C5.0666 1.1 5.31105 1.39445 5.4666 1.65C5.62216 1.90556 5.69994 2.14445 5.69994 2.36667C5.69994 2.63334 5.60549 2.86111 5.4166 3.05C5.22771 3.23889 4.99993 3.33334 4.73327 3.33334ZM11.2666 3.33334C10.9999 3.33334 10.7722 3.24156 10.5833 3.058C10.3944 2.87489 10.2999 2.64445 10.2999 2.36667C10.2999 2.14445 10.3777 1.90556 10.5333 1.65C10.6888 1.39445 10.9333 1.1 11.2666 0.76667C11.5999 1.1 11.8444 1.39445 11.9999 1.65C12.1555 1.90556 12.2333 2.14445 12.2333 2.36667C12.2333 2.63334 12.1388 2.86111 11.9499 3.05C11.761 3.23889 11.5333 3.33334 11.2666 3.33334ZM4.03327 13.9667V14.5333C4.03327 14.7444 3.95838 14.9193 3.8086 15.058C3.65838 15.1971 3.47771 15.2667 3.2666 15.2667H2.78327C2.57216 15.2667 2.39171 15.1944 2.24193 15.05C2.09171 14.9056 2.0166 14.7278 2.0166 14.5167V9.28334L3.39993 5.35C3.47771 5.13889 3.60838 4.96667 3.79194 4.83334C3.97505 4.7 4.17771 4.63334 4.39993 4.63334H11.5999C11.8222 4.63334 12.0248 4.7 12.2079 4.83334C12.3915 4.96667 12.5222 5.13889 12.5999 5.35L13.9833 9.28334V14.5167C13.9833 14.7278 13.9084 14.9056 13.7586 15.05C13.6084 15.1944 13.4277 15.2667 13.2166 15.2667H12.7333C12.5222 15.2667 12.3417 15.1971 12.1919 15.058C12.0417 14.9193 11.9666 14.7444 11.9666 14.5333V13.9667H4.03327ZM3.94994 8.05H12.0499L11.3499 6.06667H4.64993L3.94994 8.05ZM5.04993 11.8833C5.3166 11.8833 5.54438 11.7889 5.73327 11.6C5.92216 11.4111 6.0166 11.1833 6.0166 10.9167C6.0166 10.65 5.92505 10.4222 5.74193 10.2333C5.55838 10.0444 5.33327 9.95 5.0666 9.95C4.78882 9.95 4.55549 10.0444 4.3666 10.2333C4.17771 10.4222 4.08327 10.65 4.08327 10.9167C4.08327 11.1833 4.17771 11.4111 4.3666 11.6C4.55549 11.7889 4.78327 11.8833 5.04993 11.8833ZM10.9333 11.8833C11.211 11.8833 11.4444 11.7889 11.6333 11.6C11.8222 11.4111 11.9166 11.1833 11.9166 10.9167C11.9166 10.65 11.8222 10.4222 11.6333 10.2333C11.4444 10.0444 11.2166 9.95 10.9499 9.95C10.6833 9.95 10.4555 10.0444 10.2666 10.2333C10.0777 10.4222 9.98327 10.65 9.98327 10.9167C9.98327 11.1833 10.075 11.4111 10.2586 11.6C10.4417 11.7889 10.6666 11.8833 10.9333 11.8833Z" fill="white"/>
</g>
</svg>
