<svg width="18" height="18" viewBox="0 0 18 18" fill="none" xmlns="http://www.w3.org/2000/svg">
<g clip-path="url(#clip0_24_279)">
<path fill-rule="evenodd" clip-rule="evenodd" d="M9 18C13.9574 18 18 13.9574 18 9C18 4.04255 13.9571 0 9 0C4.04291 0 0 4.04255 0 9C0 13.9574 4.04255 18 9 18Z" fill="#FFF7F7"/>
<path fill-rule="evenodd" clip-rule="evenodd" d="M8.19959 9.80101C7.30408 8.90549 7.10236 8.0107 7.05678 7.65177C7.0435 7.55307 7.07759 7.45329 7.14866 7.38258L7.87297 6.65827C7.97957 6.55167 7.99895 6.38585 7.91927 6.25807L6.76497 4.46705C6.67668 4.32563 6.49578 4.27466 6.34647 4.34896L4.49407 5.22079C4.37347 5.28037 4.30276 5.4085 4.31676 5.54238C4.41367 6.4641 4.81566 8.73034 7.0417 10.9575C9.26882 13.1846 11.5343 13.5855 12.4568 13.6824C12.5903 13.6964 12.7188 13.6257 12.7784 13.5051L13.6502 11.6527C13.7245 11.5041 13.6739 11.3232 13.5332 11.2342L11.7422 10.0817C11.6147 10.0013 11.4486 10.0196 11.342 10.1262L10.6177 10.8512C10.5469 10.9219 10.4472 10.956 10.3485 10.9431C9.98954 10.8975 9.09367 10.6958 8.19923 9.80029L8.19959 9.80101Z" fill="#1E1E1E"/>
</g>
<defs>
<clipPath id="clip0_24_279">
<rect width="18" height="18" fill="white"/>
</clipPath>
</defs>
</svg>
