<?xml version="1.0" encoding="UTF-8"?>
<svg id="_Слой_1" data-name="Слой 1" xmlns="http://www.w3.org/2000/svg" viewBox="0 0 1000 1000">
  <defs>
    <style>
      .cls-1 {
        fill: #fff;
      }

      .cls-2 {
        fill: #3d1f06;
      }
    </style>
  </defs>
  <rect class="cls-1" y="0" width="1000" height="1000"/>
  <g>
    <path class="cls-2" d="M921.75,472.26c-.44,230.76-168.05,413.14-383.11,431.61-225.24,19.34-423.57-135.52-455.63-357.99-17.75-123.15,14.22-233.88,92.86-330.61,20.65-25.4,38.9-51.98,52.19-82.15,14.79-33.59,52.08-47.34,84.88-32.83,31.34,13.87,45.51,50.27,31.43,84.04-16.18,38.79-37.99,74.36-65.26,106.47-92.85,109.35-98.32,255.08-13.91,370.77,124.05,170.01,394.11,150.56,492.28-35.45,60.28-114.21,45.99-239.25-38.68-338.15-26.21-30.61-46.6-64.84-62.42-101.74-14.94-34.85-1.53-71.66,30.44-85.86,34.1-15.15,70.99-.18,86.61,35.93,12.34,28.53,29.63,53.7,49.41,77.39,66.07,79.12,97.46,170.81,98.89,258.57Zm-262.74,361.42c4.42-2.04,10.16-4.23,15.46-7.22,40.17-22.63,36.76-14.29,10.48-54.8-2.59-3.99-5.29-5.78-10.57-4.44-35.12,8.89-44.37,29.83-26.24,59.63,2.37,3.9,4.37,7.37,10.87,6.83Zm-442.17-173.4c-.71-9.11-22.62-40.23-28.07-39.87-12.59,.82-37.13,15.72-36.92,22.41,.32,9.91,23.55,46.5,29.25,46.07,7.23-.53,36.12-23.67,35.73-28.61Zm596.49-39.46c-6.34-1-9.21,.37-10.78,3.14-6.34,11.22-12.42,22.59-18.54,33.93-1.59,2.95-1.9,6.41,.9,8.41,10.48,7.46,20.37,17.46,32.13,20.98,13.59,4.06,15.1-11.94,18.96-20.14,4.65-9.9,20.03-20.21,7.75-31.94-8.34-7.97-21.84-10.55-30.42-14.38Zm49.12-143.07c8.38,.24,24.12,2.1,19.47-18.54-3.18-14.08,7.91-37.59-15.07-40.17-26.78-3.01-37.45,5.95-37.37,20.27,.19,35.22,2.54,38.42,32.98,38.45Zm-720.13-.04c25.58,.06,27.98-3.23,28.15-38.44,.07-14.1-10.94-23.29-37.46-20.22-22.76,2.64-11.87,26.11-15,40.23-4.61,20.79,11.31,18.58,24.31,18.43Zm221.94,318.33c.56-5.83-2.39-8.49-6.5-10.6-7.65-3.93-15.18-8.07-22.81-12.04-5.71-2.97-12.14-9.84-17.8-2.21-8.2,11.06-19.7,20.81-20.48,35.84-.25,4.79,41.93,27.4,47.49,26.16,2.13-.48,4.88-2.04,5.71-3.86,5.12-11.15,9.78-22.51,14.37-33.28Z"/>
    <path class="cls-2" d="M734.77,576.36c-6.89-5.17-6.94-11.83-9.07-17.44-27.62-72.87-77.66-122.55-151.83-147.53-12.31-4.15-24.56-10.08-31.85,9.64-2.32-27.67-14.04-46.77-39.47-59.3,4.06,33.71-12.12,55.36-33.08,78.2-30.19,32.91-55.18,70.65-81.62,106.89-9.99,13.69-1.39,25.86,7.36,36.5,10.13,12.32,22.89,16.05,37.78,8.48,14.22-7.23,28.1-15.24,42.69-21.61,10.22-4.46,11.35-9.42,5.11-17.94-2.37-3.24-5.48-7.05-1-13.52,9.59,15.27,22.71,22.37,40.83,19.91,7.94-1.08,12.72,6.51,17.38,12.21,26.91,32.93,29.88,79.5,7.45,115.47-22.42,35.96-63.21,53.08-104.92,44.05-110.41-23.91-190.24-126.92-193.54-241.73-3.08-107.15,73.34-228.83,208.8-253.77,131-24.12,265.58,64.96,291.57,194.85,1.18,5.89,1.29,12,1.93,18.33-8.68,1.17-10.91-5.92-14.84-9.71-52.16-50.29-114.11-75.18-186.76-73.74-14.56,.29-16.8,2.5-8.61,16.01,7.64,12.61,16.54,18.86,30.65,22.7,77.42,21.07,131.61,69.1,161.85,143.66,6.06,14.93,5.83,15.02,3.2,29.42Zm-240.06-193.23c.53-7.76-2.97-12.59-10.74-10.48-11.4,3.1-24.67,3.16-32.04,14.62-1.77,2.75,20.56,31.38,23.79,31.57,4.97,.29,18.93-25.92,19-35.71Z"/>
  </g>
</svg>